<mxfile host="app.diagrams.net" modified="2022-04-19T06:27:36.087Z" agent="5.0 (Windows)" etag="DGAa58FJDnzVfpyb1357" version="17.4.3" type="github">
  <diagram id="YgVDF2IWhC5D0JrjfgGj" name="Page-1">
    <mxGraphModel dx="1038" dy="527" grid="1" gridSize="10" guides="1" tooltips="1" connect="1" arrows="1" fold="1" page="1" pageScale="1" pageWidth="827" pageHeight="1169" math="0" shadow="0">
      <root>
        <mxCell id="0" />
        <mxCell id="1" parent="0" />
        <mxCell id="Ja2fsqdCu4SKACqJsA3f-6" style="edgeStyle=orthogonalEdgeStyle;rounded=0;orthogonalLoop=1;jettySize=auto;html=1;" edge="1" parent="1" source="VIo4M6wwHA0wBTMOTw6V-1" target="Ja2fsqdCu4SKACqJsA3f-2">
          <mxGeometry relative="1" as="geometry" />
        </mxCell>
        <mxCell id="Ja2fsqdCu4SKACqJsA3f-7" style="edgeStyle=orthogonalEdgeStyle;rounded=0;orthogonalLoop=1;jettySize=auto;html=1;" edge="1" parent="1" source="VIo4M6wwHA0wBTMOTw6V-1" target="VIo4M6wwHA0wBTMOTw6V-2">
          <mxGeometry relative="1" as="geometry" />
        </mxCell>
        <mxCell id="VIo4M6wwHA0wBTMOTw6V-1" value="&lt;div&gt;IFU&lt;/div&gt;" style="rounded=1;whiteSpace=wrap;html=1;" parent="1" vertex="1">
          <mxGeometry x="170" y="220" width="120" height="60" as="geometry" />
        </mxCell>
        <mxCell id="VIo4M6wwHA0wBTMOTw6V-2" value="L1 ICache" style="rounded=1;whiteSpace=wrap;html=1;" parent="1" vertex="1">
          <mxGeometry x="170" y="330" width="120" height="60" as="geometry" />
        </mxCell>
        <mxCell id="Ja2fsqdCu4SKACqJsA3f-4" style="edgeStyle=orthogonalEdgeStyle;rounded=0;orthogonalLoop=1;jettySize=auto;html=1;" edge="1" parent="1" source="Ja2fsqdCu4SKACqJsA3f-1" target="Ja2fsqdCu4SKACqJsA3f-3">
          <mxGeometry relative="1" as="geometry" />
        </mxCell>
        <mxCell id="Ja2fsqdCu4SKACqJsA3f-1" value="Pred Checker" style="rounded=1;whiteSpace=wrap;html=1;" vertex="1" parent="1">
          <mxGeometry x="330" y="120" width="120" height="60" as="geometry" />
        </mxCell>
        <mxCell id="Ja2fsqdCu4SKACqJsA3f-5" style="edgeStyle=orthogonalEdgeStyle;rounded=0;orthogonalLoop=1;jettySize=auto;html=1;" edge="1" parent="1" source="Ja2fsqdCu4SKACqJsA3f-2" target="Ja2fsqdCu4SKACqJsA3f-1">
          <mxGeometry relative="1" as="geometry" />
        </mxCell>
        <mxCell id="Ja2fsqdCu4SKACqJsA3f-2" value="Predecoder" style="rounded=1;whiteSpace=wrap;html=1;" vertex="1" parent="1">
          <mxGeometry x="170" y="120" width="120" height="60" as="geometry" />
        </mxCell>
        <mxCell id="Ja2fsqdCu4SKACqJsA3f-3" value="IBuffer" style="rounded=1;whiteSpace=wrap;html=1;" vertex="1" parent="1">
          <mxGeometry x="510" y="120" width="120" height="60" as="geometry" />
        </mxCell>
      </root>
    </mxGraphModel>
  </diagram>
</mxfile>
